<svg width="200" height="200" viewBox="0 0 200 200" fill="none" xmlns="http://www.w3.org/2000/svg">
<rect y="40" width="200" height="120" fill="#0000FF"/>
<g filter="url(#filter0_d_1_4)">
<mask id="path-2-outside-1_1_4" maskUnits="userSpaceOnUse" x="4" y="67" width="193" height="66" fill="black">
<rect fill="white" x="4" y="67" width="193" height="66"/>
<path d="M75.4727 73.998C74.707 74.0801 73.6133 74.2305 72.1914 74.4492C70.7695 74.668 69.4844 75.2012 68.3359 76.0488C67.3242 76.7871 66.5996 78.0586 66.1621 79.8633C65.752 81.6406 65.5469 84.2656 65.5469 87.7383V129.328H58.2461L21.9883 84.334V111.65C21.9883 115.041 22.207 117.625 22.6445 119.402C23.1094 121.152 23.8477 122.438 24.8594 123.258C25.5977 123.859 26.7734 124.393 28.3867 124.857C30 125.322 31.2852 125.637 32.2422 125.801V129H7.22266V125.801C8.28906 125.719 9.50586 125.527 10.873 125.227C12.2676 124.898 13.4297 124.406 14.3594 123.75C15.4258 122.957 16.1504 121.768 16.5332 120.182C16.9434 118.568 17.1484 115.875 17.1484 112.102V84.5391C17.1484 83.1719 16.9297 81.8867 16.4922 80.6836C16.082 79.4531 15.4258 78.4004 14.5234 77.5254C13.5664 76.5957 12.459 75.8711 11.2012 75.3516C9.9707 74.8047 8.5625 74.3809 6.97656 74.0801V70.7988H28.8789L60.707 110.174V88.1484C60.707 84.6484 60.4746 82.0508 60.0098 80.3555C59.5449 78.6328 58.8066 77.3613 57.7949 76.541C57.002 75.9121 55.8262 75.3789 54.2676 74.9414C52.709 74.4766 51.4512 74.1621 50.4941 73.998V70.7988H75.4727V73.998ZM124.158 73.998C123.064 74.1348 122.135 74.2715 121.369 74.4082C120.604 74.5449 119.742 74.7363 118.785 74.9824C117.664 75.2832 116.939 75.8164 116.611 76.582C116.311 77.3477 116.16 78.2227 116.16 79.207V111.281C116.16 114.234 115.559 116.941 114.355 119.402C113.18 121.863 111.553 123.928 109.475 125.596C107.369 127.236 105.018 128.467 102.42 129.287C99.8223 130.135 97.0469 130.559 94.0938 130.559C88.9805 130.559 84.8516 129.328 81.707 126.867C78.5898 124.406 77.0312 121.029 77.0312 116.736C77.0312 114.193 77.7422 112.088 79.1641 110.42C80.6133 108.752 82.5957 107.918 85.1113 107.918C87.4902 107.918 89.377 108.615 90.7715 110.01C92.1934 111.404 92.9043 113.127 92.9043 115.178C92.9043 116.928 92.2891 118.555 91.0586 120.059C89.8555 121.535 88.4746 122.902 86.916 124.16V124.693C87.1621 125.24 87.6953 125.705 88.5156 126.088C89.3359 126.471 90.1699 126.662 91.0176 126.662C94.2988 126.662 96.8691 125.486 98.7285 123.135C100.615 120.783 101.559 117.229 101.559 112.471V79.6172C101.559 78.6328 101.408 77.8125 101.107 77.1562C100.807 76.5 100.082 75.9258 98.9336 75.4336C98.1133 75.0781 97.1152 74.7773 95.9395 74.5312C94.791 74.2852 93.834 74.1074 93.0684 73.998V70.7988H124.158V73.998ZM194.008 105.334C193.16 105.416 192.408 105.512 191.752 105.621C191.096 105.73 190.275 105.949 189.291 106.277C188.17 106.633 187.432 107.221 187.076 108.041C186.721 108.861 186.543 109.723 186.543 110.625V117.393C186.543 118.76 186.557 119.867 186.584 120.715C186.611 121.535 186.652 122.561 186.707 123.791C183.973 125.432 179.926 126.977 174.566 128.426C169.234 129.875 164.326 130.6 159.842 130.6C155.631 130.6 151.68 129.957 147.988 128.672C144.297 127.387 141.057 125.459 138.268 122.889C135.479 120.346 133.277 117.188 131.664 113.414C130.078 109.641 129.285 105.32 129.285 100.453C129.285 95.9141 130.037 91.7168 131.541 87.8613C133.045 84.0059 135.219 80.6836 138.062 77.8945C140.852 75.1328 144.242 73 148.234 71.4961C152.254 69.9922 156.697 69.2402 161.564 69.2402C164.873 69.2402 167.936 69.6504 170.752 70.4707C173.568 71.2637 175.893 72.125 177.725 73.0547L180.268 70.7988H183.836L184.205 92.0449H180.596C178.518 85.6738 176.029 80.9434 173.131 77.8535C170.232 74.7637 166.568 73.2188 162.139 73.2188C156.889 73.2188 152.828 75.5156 149.957 80.1094C147.113 84.7031 145.691 91.0332 145.691 99.0996C145.691 107.658 147.086 114.357 149.875 119.197C152.691 124.037 156.67 126.457 161.811 126.457C164.217 126.457 166.35 126.102 168.209 125.391C170.096 124.652 171.559 123.805 172.598 122.848V111.035C172.598 110.051 172.42 109.23 172.064 108.574C171.709 107.891 170.998 107.303 169.932 106.811C169.111 106.428 168.086 106.113 166.855 105.867C165.625 105.621 164.6 105.443 163.779 105.334V102.135H194.008V105.334Z"/>
</mask>
<path d="M75.4727 73.998C74.707 74.0801 73.6133 74.2305 72.1914 74.4492C70.7695 74.668 69.4844 75.2012 68.3359 76.0488C67.3242 76.7871 66.5996 78.0586 66.1621 79.8633C65.752 81.6406 65.5469 84.2656 65.5469 87.7383V129.328H58.2461L21.9883 84.334V111.65C21.9883 115.041 22.207 117.625 22.6445 119.402C23.1094 121.152 23.8477 122.438 24.8594 123.258C25.5977 123.859 26.7734 124.393 28.3867 124.857C30 125.322 31.2852 125.637 32.2422 125.801V129H7.22266V125.801C8.28906 125.719 9.50586 125.527 10.873 125.227C12.2676 124.898 13.4297 124.406 14.3594 123.75C15.4258 122.957 16.1504 121.768 16.5332 120.182C16.9434 118.568 17.1484 115.875 17.1484 112.102V84.5391C17.1484 83.1719 16.9297 81.8867 16.4922 80.6836C16.082 79.4531 15.4258 78.4004 14.5234 77.5254C13.5664 76.5957 12.459 75.8711 11.2012 75.3516C9.9707 74.8047 8.5625 74.3809 6.97656 74.0801V70.7988H28.8789L60.707 110.174V88.1484C60.707 84.6484 60.4746 82.0508 60.0098 80.3555C59.5449 78.6328 58.8066 77.3613 57.7949 76.541C57.002 75.9121 55.8262 75.3789 54.2676 74.9414C52.709 74.4766 51.4512 74.1621 50.4941 73.998V70.7988H75.4727V73.998ZM124.158 73.998C123.064 74.1348 122.135 74.2715 121.369 74.4082C120.604 74.5449 119.742 74.7363 118.785 74.9824C117.664 75.2832 116.939 75.8164 116.611 76.582C116.311 77.3477 116.16 78.2227 116.16 79.207V111.281C116.16 114.234 115.559 116.941 114.355 119.402C113.18 121.863 111.553 123.928 109.475 125.596C107.369 127.236 105.018 128.467 102.42 129.287C99.8223 130.135 97.0469 130.559 94.0938 130.559C88.9805 130.559 84.8516 129.328 81.707 126.867C78.5898 124.406 77.0312 121.029 77.0312 116.736C77.0312 114.193 77.7422 112.088 79.1641 110.42C80.6133 108.752 82.5957 107.918 85.1113 107.918C87.4902 107.918 89.377 108.615 90.7715 110.01C92.1934 111.404 92.9043 113.127 92.9043 115.178C92.9043 116.928 92.2891 118.555 91.0586 120.059C89.8555 121.535 88.4746 122.902 86.916 124.16V124.693C87.1621 125.24 87.6953 125.705 88.5156 126.088C89.3359 126.471 90.1699 126.662 91.0176 126.662C94.2988 126.662 96.8691 125.486 98.7285 123.135C100.615 120.783 101.559 117.229 101.559 112.471V79.6172C101.559 78.6328 101.408 77.8125 101.107 77.1562C100.807 76.5 100.082 75.9258 98.9336 75.4336C98.1133 75.0781 97.1152 74.7773 95.9395 74.5312C94.791 74.2852 93.834 74.1074 93.0684 73.998V70.7988H124.158V73.998ZM194.008 105.334C193.16 105.416 192.408 105.512 191.752 105.621C191.096 105.73 190.275 105.949 189.291 106.277C188.17 106.633 187.432 107.221 187.076 108.041C186.721 108.861 186.543 109.723 186.543 110.625V117.393C186.543 118.76 186.557 119.867 186.584 120.715C186.611 121.535 186.652 122.561 186.707 123.791C183.973 125.432 179.926 126.977 174.566 128.426C169.234 129.875 164.326 130.6 159.842 130.6C155.631 130.6 151.68 129.957 147.988 128.672C144.297 127.387 141.057 125.459 138.268 122.889C135.479 120.346 133.277 117.188 131.664 113.414C130.078 109.641 129.285 105.32 129.285 100.453C129.285 95.9141 130.037 91.7168 131.541 87.8613C133.045 84.0059 135.219 80.6836 138.062 77.8945C140.852 75.1328 144.242 73 148.234 71.4961C152.254 69.9922 156.697 69.2402 161.564 69.2402C164.873 69.2402 167.936 69.6504 170.752 70.4707C173.568 71.2637 175.893 72.125 177.725 73.0547L180.268 70.7988H183.836L184.205 92.0449H180.596C178.518 85.6738 176.029 80.9434 173.131 77.8535C170.232 74.7637 166.568 73.2188 162.139 73.2188C156.889 73.2188 152.828 75.5156 149.957 80.1094C147.113 84.7031 145.691 91.0332 145.691 99.0996C145.691 107.658 147.086 114.357 149.875 119.197C152.691 124.037 156.67 126.457 161.811 126.457C164.217 126.457 166.35 126.102 168.209 125.391C170.096 124.652 171.559 123.805 172.598 122.848V111.035C172.598 110.051 172.42 109.23 172.064 108.574C171.709 107.891 170.998 107.303 169.932 106.811C169.111 106.428 168.086 106.113 166.855 105.867C165.625 105.621 164.6 105.443 163.779 105.334V102.135H194.008V105.334Z" fill="white"/>
<path d="M75.4727 73.998L75.6857 75.9867L77.4727 75.7952V73.998H75.4727ZM68.3359 76.0488L69.5149 77.6644L69.5236 77.658L68.3359 76.0488ZM66.1621 79.8633L64.2184 79.3921L64.2158 79.4028L64.2133 79.4136L66.1621 79.8633ZM65.5469 129.328V131.328H67.5469V129.328H65.5469ZM58.2461 129.328L56.6888 130.583L57.2892 131.328H58.2461V129.328ZM21.9883 84.334L23.5456 83.0791L19.9883 78.6646V84.334H21.9883ZM22.6445 119.402L20.7025 119.88L20.7069 119.898L20.7116 119.916L22.6445 119.402ZM24.8594 123.258L26.1227 121.707L26.119 121.704L24.8594 123.258ZM32.2422 125.801H34.2422V124.114L32.5801 123.83L32.2422 125.801ZM32.2422 129V131H34.2422V129H32.2422ZM7.22266 129H5.22266V131H7.22266V129ZM7.22266 125.801L7.06926 123.807L5.22266 123.949V125.801H7.22266ZM10.873 125.227L11.3028 127.18L11.317 127.177L11.3311 127.173L10.873 125.227ZM14.3594 123.75L15.5127 125.384L15.5329 125.37L15.5528 125.355L14.3594 123.75ZM16.5332 120.182L14.5949 119.689L14.5919 119.701L14.589 119.712L16.5332 120.182ZM16.4922 80.6836L14.5948 81.316L14.6034 81.3417L14.6126 81.3671L16.4922 80.6836ZM14.5234 77.5254L13.1299 78.9599L13.1311 78.9612L14.5234 77.5254ZM11.2012 75.3516L10.3889 77.1792L10.4131 77.19L10.4377 77.2001L11.2012 75.3516ZM6.97656 74.0801H4.97656V75.7364L6.6039 76.0451L6.97656 74.0801ZM6.97656 70.7988V68.7988H4.97656V70.7988H6.97656ZM28.8789 70.7988L30.4343 69.5416L29.8339 68.7988H28.8789V70.7988ZM60.707 110.174L59.1516 111.431L62.707 115.83V110.174H60.707ZM60.0098 80.3555L58.0788 80.8765L58.081 80.8843L60.0098 80.3555ZM57.7949 76.541L59.0545 74.9875L59.0462 74.9807L59.0377 74.974L57.7949 76.541ZM54.2676 74.9414L53.696 76.858L53.7115 76.8626L53.7271 76.867L54.2676 74.9414ZM50.4941 73.998H48.4941V75.6844L50.1562 75.9693L50.4941 73.998ZM50.4941 70.7988V68.7988H48.4941V70.7988H50.4941ZM75.4727 70.7988H77.4727V68.7988H75.4727V70.7988ZM75.2596 72.0094C74.4479 72.0964 73.3183 72.2523 71.8873 72.4725L72.4955 76.426C73.9082 76.2086 74.9662 76.0638 75.6857 75.9867L75.2596 72.0094ZM71.8873 72.4725C70.1481 72.74 68.5592 73.3982 67.1482 74.4397L69.5236 77.658C70.4095 77.0041 71.391 76.5959 72.4955 76.426L71.8873 72.4725ZM67.157 74.4332C65.6158 75.5579 64.7152 77.3427 64.2184 79.3921L68.1058 80.3345C68.484 78.7745 69.0327 78.0163 69.5149 77.6644L67.157 74.4332ZM64.2133 79.4136C63.7511 81.4166 63.5469 84.2241 63.5469 87.7383H67.5469C67.5469 84.3071 67.7528 81.8646 68.1109 80.313L64.2133 79.4136ZM63.5469 87.7383V129.328H67.5469V87.7383H63.5469ZM65.5469 127.328H58.2461V131.328H65.5469V127.328ZM59.8034 128.073L23.5456 83.0791L20.431 85.5889L56.6888 130.583L59.8034 128.073ZM19.9883 84.334V111.65H23.9883V84.334H19.9883ZM19.9883 111.65C19.9883 115.09 20.2067 117.866 20.7025 119.88L24.5866 118.924C24.2073 117.384 23.9883 114.992 23.9883 111.65H19.9883ZM20.7116 119.916C21.2438 121.919 22.1529 123.638 23.5998 124.811L26.119 121.704C25.5424 121.237 24.975 120.385 24.5775 118.889L20.7116 119.916ZM23.596 124.808C24.6459 125.664 26.1282 126.288 27.833 126.779L28.9405 122.936C27.4186 122.497 26.5494 122.055 26.1227 121.707L23.596 124.808ZM27.833 126.779C29.4741 127.252 30.8407 127.59 31.9043 127.772L32.5801 123.83C31.7297 123.684 30.5259 123.392 28.9405 122.936L27.833 126.779ZM30.2422 125.801V129H34.2422V125.801H30.2422ZM32.2422 127H7.22266V131H32.2422V127ZM9.22266 129V125.801H5.22266V129H9.22266ZM7.37605 127.795C8.55869 127.704 9.87062 127.495 11.3028 127.18L10.4433 123.273C9.1411 123.56 8.01943 123.734 7.06926 123.807L7.37605 127.795ZM11.3311 127.173C12.9131 126.801 14.3269 126.221 15.5127 125.384L13.206 122.116C12.5324 122.592 11.622 122.996 10.415 123.28L11.3311 127.173ZM15.5528 125.355C17.0744 124.223 18.0107 122.584 18.4774 120.651L14.589 119.712C14.2901 120.951 13.7772 121.691 13.166 122.145L15.5528 125.355ZM18.4715 120.674C18.9485 118.798 19.1484 115.886 19.1484 112.102H15.1484C15.1484 115.864 14.9382 118.338 14.5949 119.689L18.4715 120.674ZM19.1484 112.102V84.5391H15.1484V112.102H19.1484ZM19.1484 84.5391C19.1484 82.9547 18.8942 81.4368 18.3718 80.0001L14.6126 81.3671C14.9652 82.3366 15.1484 83.389 15.1484 84.5391H19.1484ZM18.3896 80.0511C17.8813 78.5263 17.0559 77.1952 15.9157 76.0896L13.1311 78.9612C13.7956 79.6055 14.2828 80.3799 14.5948 81.316L18.3896 80.0511ZM15.917 76.0908C14.7744 74.9809 13.4521 74.1174 11.9647 73.503L10.4377 77.2001C11.4659 77.6248 12.3584 78.2105 13.1299 78.9599L15.917 76.0908ZM12.0134 73.5239C10.6177 72.9036 9.05762 72.4391 7.34923 72.1151L6.6039 76.0451C8.06738 76.3226 9.32373 76.7058 10.3889 77.1792L12.0134 73.5239ZM8.97656 74.0801V70.7988H4.97656V74.0801H8.97656ZM6.97656 72.7988H28.8789V68.7988H6.97656V72.7988ZM27.3235 72.0561L59.1516 111.431L62.2624 108.917L30.4343 69.5416L27.3235 72.0561ZM62.707 110.174V88.1484H58.707V110.174H62.707ZM62.707 88.1484C62.707 84.6095 62.4771 81.7907 61.9386 79.8266L58.081 80.8843C58.4721 82.3109 58.707 84.6874 58.707 88.1484H62.707ZM61.9407 79.8344C61.406 77.8527 60.4943 76.1549 59.0545 74.9875L56.5353 78.0945C57.119 78.5678 57.6839 79.4129 58.0788 80.8765L61.9407 79.8344ZM59.0377 74.974C57.9494 74.1109 56.487 73.4871 54.8081 73.0158L53.7271 76.867C55.1654 77.2707 56.0545 77.7133 56.5521 78.108L59.0377 74.974ZM54.8392 73.0248C53.2476 72.5501 51.9029 72.2104 50.8321 72.0268L50.1562 75.9693C50.9994 76.1138 52.1704 76.403 53.696 76.858L54.8392 73.0248ZM52.4941 73.998V70.7988H48.4941V73.998H52.4941ZM50.4941 72.7988H75.4727V68.7988H50.4941V72.7988ZM73.4727 70.7988V73.998H77.4727V70.7988H73.4727ZM124.158 73.998L124.406 75.9826L126.158 75.7636V73.998H124.158ZM118.785 74.9824L118.287 73.0454L118.277 73.048L118.267 73.0507L118.785 74.9824ZM116.611 76.582L114.773 75.7942L114.761 75.8223L114.75 75.8507L116.611 76.582ZM114.355 119.402L112.559 118.524L112.555 118.532L112.551 118.54L114.355 119.402ZM109.475 125.596L110.704 127.173L110.715 127.164L110.727 127.155L109.475 125.596ZM102.42 129.287L101.818 127.38L101.809 127.383L101.799 127.386L102.42 129.287ZM81.707 126.867L80.4677 128.437L80.4744 128.442L81.707 126.867ZM79.1641 110.42L77.6543 109.108L77.6481 109.115L77.642 109.122L79.1641 110.42ZM90.7715 110.01L89.3573 111.424L89.3641 111.431L89.3711 111.438L90.7715 110.01ZM91.0586 120.059L89.5107 118.792L89.5081 118.795L91.0586 120.059ZM86.916 124.16L85.66 122.604L84.916 123.204V124.16H86.916ZM86.916 124.693H84.916V125.123L85.0922 125.514L86.916 124.693ZM98.7285 123.135L97.1685 121.883L97.1641 121.889L97.1597 121.894L98.7285 123.135ZM98.9336 75.4336L98.1384 77.2687L98.1458 77.2719L98.9336 75.4336ZM95.9395 74.5312L95.5204 76.4869L95.5297 76.4888L95.9395 74.5312ZM93.0684 73.998H91.0684V75.7326L92.7855 75.9779L93.0684 73.998ZM93.0684 70.7988V68.7988H91.0684V70.7988H93.0684ZM124.158 70.7988H126.158V68.7988H124.158V70.7988ZM123.91 72.0135C122.795 72.1529 121.828 72.2946 121.018 72.4393L121.721 76.3771C122.441 76.2484 123.334 76.1166 124.406 75.9826L123.91 72.0135ZM121.018 72.4393C120.192 72.5868 119.28 72.79 118.287 73.0454L119.283 76.9194C120.204 76.6826 121.015 76.503 121.721 76.3771L121.018 72.4393ZM118.267 73.0507C116.8 73.4442 115.428 74.2662 114.773 75.7942L118.45 77.3699C118.451 77.3666 118.528 77.1222 119.303 76.9141L118.267 73.0507ZM114.75 75.8507C114.341 76.8902 114.16 78.0204 114.16 79.207H118.16C118.16 78.4249 118.28 77.8051 118.473 77.3133L114.75 75.8507ZM114.16 79.207V111.281H118.16V79.207H114.16ZM114.16 111.281C114.16 113.954 113.618 116.357 112.559 118.524L116.152 120.281C117.499 117.525 118.16 114.515 118.16 111.281H114.16ZM112.551 118.54C111.501 120.737 110.061 122.561 108.223 124.036L110.727 127.155C113.045 125.295 114.858 122.99 116.16 120.265L112.551 118.54ZM108.245 124.018C106.331 125.509 104.193 126.63 101.818 127.38L103.022 131.194C105.842 130.304 108.407 128.963 110.704 127.173L108.245 124.018ZM101.799 127.386C99.4177 128.163 96.8531 128.559 94.0938 128.559V132.559C97.2406 132.559 100.227 132.107 103.04 131.188L101.799 127.386ZM94.0938 128.559C89.3004 128.559 85.644 127.409 82.9396 125.292L80.4744 128.442C84.0592 131.248 88.6605 132.559 94.0938 132.559V128.559ZM82.9463 125.297C80.3525 123.25 79.0312 120.474 79.0312 116.736H75.0312C75.0312 121.584 76.8272 125.563 80.4677 128.437L82.9463 125.297ZM79.0312 116.736C79.0312 114.588 79.6212 112.967 80.6861 111.717L77.642 109.122C75.8632 111.209 75.0312 113.798 75.0312 116.736H79.0312ZM80.6738 111.732C81.6883 110.564 83.0856 109.918 85.1113 109.918V105.918C82.1058 105.918 79.5383 106.94 77.6543 109.108L80.6738 111.732ZM85.1113 109.918C87.0767 109.918 88.4131 110.48 89.3573 111.424L92.1857 108.596C90.3408 106.751 87.9038 105.918 85.1113 105.918V109.918ZM89.3711 111.438C90.3968 112.444 90.9043 113.646 90.9043 115.178H94.9043C94.9043 112.608 93.9899 110.365 92.1719 108.582L89.3711 111.438ZM90.9043 115.178C90.9043 116.415 90.4831 117.604 89.5107 118.792L92.6065 121.325C94.095 119.506 94.9043 117.441 94.9043 115.178H90.9043ZM89.5081 118.795C88.3971 120.159 87.1161 121.429 85.66 122.604L88.1721 125.717C89.8332 124.376 91.3138 122.912 92.6091 121.322L89.5081 118.795ZM84.916 124.16V124.693H88.916V124.16H84.916ZM85.0922 125.514C85.6138 126.673 86.6287 127.414 87.6699 127.9L89.3614 124.276C88.7619 123.996 88.7104 123.807 88.7399 123.873L85.0922 125.514ZM87.6699 127.9C88.7367 128.398 89.8581 128.662 91.0176 128.662V124.662C90.4817 124.662 89.9352 124.543 89.3614 124.276L87.6699 127.9ZM91.0176 128.662C94.8442 128.662 98.0194 127.256 100.297 124.375L97.1597 121.894C95.7189 123.717 93.7534 124.662 91.0176 124.662V128.662ZM100.288 124.386C102.583 121.526 103.559 117.437 103.559 112.471H99.5586C99.5586 117.02 98.647 120.04 97.1685 121.883L100.288 124.386ZM103.559 112.471V79.6172H99.5586V112.471H103.559ZM103.559 79.6172C103.559 78.4438 103.381 77.3175 102.926 76.3229L99.2893 77.9896C99.435 78.3075 99.5586 78.8218 99.5586 79.6172H103.559ZM102.926 76.3229C102.312 74.9843 101.02 74.152 99.7214 73.5953L98.1458 77.2719C98.6102 77.4709 98.9116 77.6546 99.0962 77.8009C99.2787 77.9455 99.302 78.0172 99.2893 77.9896L102.926 76.3229ZM99.7288 73.5985C98.7505 73.1746 97.6153 72.8387 96.3492 72.5737L95.5297 76.4888C96.6152 76.716 97.4761 76.9817 98.1384 77.2687L99.7288 73.5985ZM96.3585 72.5756C95.1855 72.3243 94.1794 72.1365 93.3512 72.0181L92.7855 75.9779C93.4886 76.0784 94.3966 76.246 95.5204 76.4869L96.3585 72.5756ZM95.0684 73.998V70.7988H91.0684V73.998H95.0684ZM93.0684 72.7988H124.158V68.7988H93.0684V72.7988ZM122.158 70.7988V73.998H126.158V70.7988H122.158ZM194.008 105.334L194.2 107.325L196.008 107.15V105.334H194.008ZM189.291 106.277L189.896 108.184L189.91 108.179L189.923 108.175L189.291 106.277ZM186.584 120.715L184.585 120.779L184.585 120.781L186.584 120.715ZM186.707 123.791L187.736 125.506L188.758 124.893L188.705 123.702L186.707 123.791ZM174.566 128.426L174.044 126.495L174.042 126.496L174.566 128.426ZM138.268 122.889L139.623 121.418L139.615 121.411L138.268 122.889ZM131.664 113.414L129.82 114.189L129.825 114.2L131.664 113.414ZM138.062 77.8945L139.463 79.3224L139.47 79.3157L138.062 77.8945ZM148.234 71.4961L147.534 69.6229L147.529 69.6245L148.234 71.4961ZM170.752 70.4707L170.193 72.3909L170.201 72.3934L170.21 72.3959L170.752 70.4707ZM177.725 73.0547L176.82 74.8382L178.033 75.4542L179.052 74.5508L177.725 73.0547ZM180.268 70.7988V68.7988H179.508L178.94 69.3027L180.268 70.7988ZM183.836 70.7988L185.836 70.7641L185.801 68.7988H183.836V70.7988ZM184.205 92.0449V94.0449H186.24L186.205 92.0102L184.205 92.0449ZM180.596 92.0449L178.694 92.6651L179.144 94.0449H180.596V92.0449ZM149.957 80.1094L148.261 79.0494L148.257 79.0567L149.957 80.1094ZM149.875 119.197L148.142 120.196L148.146 120.203L149.875 119.197ZM168.209 125.391L168.923 127.259L168.931 127.256L168.938 127.253L168.209 125.391ZM172.598 122.848L173.953 124.319L174.598 123.725V122.848H172.598ZM172.064 108.574L170.29 109.497L170.298 109.512L170.306 109.527L172.064 108.574ZM169.932 106.811L169.086 108.623L169.094 108.626L169.932 106.811ZM163.779 105.334H161.779V107.085L163.515 107.316L163.779 105.334ZM163.779 102.135V100.135H161.779V102.135H163.779ZM194.008 102.135H196.008V100.135H194.008V102.135ZM193.815 103.343C192.934 103.429 192.135 103.53 191.423 103.648L192.081 107.594C192.681 107.494 193.386 107.403 194.2 107.325L193.815 103.343ZM191.423 103.648C190.624 103.782 189.694 104.035 188.659 104.38L189.923 108.175C190.857 107.864 191.568 107.679 192.081 107.594L191.423 103.648ZM188.687 104.371C187.199 104.843 185.894 105.739 185.241 107.246L188.911 108.836C188.969 108.702 189.141 108.423 189.896 108.184L188.687 104.371ZM185.241 107.246C184.776 108.32 184.543 109.452 184.543 110.625H188.543C188.543 109.994 188.666 109.403 188.911 108.836L185.241 107.246ZM184.543 110.625V117.393H188.543V110.625H184.543ZM184.543 117.393C184.543 118.77 184.557 119.901 184.585 120.779L188.583 120.65C188.557 119.833 188.543 118.75 188.543 117.393H184.543ZM184.585 120.781C184.613 121.612 184.654 122.645 184.709 123.88L188.705 123.702C188.651 122.476 188.61 121.458 188.583 120.648L184.585 120.781ZM185.678 122.076C183.177 123.577 179.336 125.064 174.044 126.495L175.088 130.356C180.515 128.889 184.768 127.287 187.736 125.506L185.678 122.076ZM174.042 126.496C168.843 127.909 164.114 128.6 159.842 128.6V132.6C164.539 132.6 169.626 131.841 175.091 130.356L174.042 126.496ZM159.842 128.6C155.837 128.6 152.11 127.989 148.646 126.783L147.331 130.561C151.249 131.925 155.424 132.6 159.842 132.6V128.6ZM148.646 126.783C145.205 125.585 142.204 123.797 139.623 121.418L136.912 124.359C139.909 127.121 143.389 129.188 147.331 130.561L148.646 126.783ZM139.615 121.411C137.055 119.077 135.014 116.161 133.503 112.628L129.825 114.2C131.541 118.214 133.902 121.615 136.92 124.367L139.615 121.411ZM133.508 112.639C132.043 109.153 131.285 105.104 131.285 100.453H127.285C127.285 105.537 128.114 110.128 129.82 114.189L133.508 112.639ZM131.285 100.453C131.285 96.1386 131.999 92.1905 133.404 88.5881L129.678 87.1345C128.075 91.2431 127.285 95.6895 127.285 100.453H131.285ZM133.404 88.5881C134.809 84.986 136.829 81.9054 139.463 79.3224L136.662 76.4667C133.608 79.4618 131.28 83.0258 129.678 87.1345L133.404 88.5881ZM139.47 79.3157C142.042 76.7685 145.187 74.7812 148.939 73.3677L147.529 69.6245C143.297 71.2188 139.661 73.4971 136.655 76.4734L139.47 79.3157ZM148.935 73.3693C152.703 71.9597 156.905 71.2402 161.564 71.2402V67.2402C156.49 67.2402 151.805 68.0247 147.534 69.6229L148.935 73.3693ZM161.564 71.2402C164.708 71.2402 167.579 71.6298 170.193 72.3909L171.311 68.5505C168.292 67.671 165.039 67.2402 161.564 67.2402V71.2402ZM170.21 72.3959C172.949 73.1671 175.141 73.9864 176.82 74.8382L178.63 71.2712C176.644 70.2636 174.188 69.3603 171.294 68.5456L170.21 72.3959ZM179.052 74.5508L181.595 72.295L178.94 69.3027L176.397 71.5585L179.052 74.5508ZM180.268 72.7988H183.836V68.7988H180.268V72.7988ZM181.836 70.8336L182.205 92.0797L186.205 92.0102L185.836 70.7641L181.836 70.8336ZM184.205 90.0449H180.596V94.0449H184.205V90.0449ZM182.497 91.4247C180.375 84.9196 177.772 79.8775 174.59 76.4852L171.672 79.2218C174.287 82.0092 176.66 86.428 178.694 92.6651L182.497 91.4247ZM174.59 76.4852C171.294 72.9721 167.093 71.2188 162.139 71.2188V75.2188C166.044 75.2188 169.171 76.5553 171.672 79.2218L174.59 76.4852ZM162.139 71.2188C156.173 71.2188 151.483 73.8935 148.261 79.0494L151.653 81.1694C154.173 77.1378 157.605 75.2188 162.139 75.2188V71.2188ZM148.257 79.0567C145.143 84.086 143.691 90.8324 143.691 99.0996H147.691C147.691 91.234 149.083 85.3203 151.658 81.1621L148.257 79.0567ZM143.691 99.0996C143.691 107.838 145.109 114.932 148.142 120.196L151.608 118.199C149.063 113.783 147.691 107.479 147.691 99.0996H143.691ZM148.146 120.203C151.282 125.592 155.884 128.457 161.811 128.457V124.457C157.456 124.457 154.101 122.482 151.604 118.191L148.146 120.203ZM161.811 128.457C164.411 128.457 166.794 128.073 168.923 127.259L167.495 123.523C165.905 124.13 164.022 124.457 161.811 124.457V128.457ZM168.938 127.253C170.964 126.46 172.67 125.5 173.953 124.319L171.243 121.377C170.447 122.109 169.228 122.844 167.48 123.528L168.938 127.253ZM174.598 122.848V111.035H170.598V122.848H174.598ZM174.598 111.035C174.598 109.821 174.379 108.649 173.823 107.622L170.306 109.527C170.46 109.812 170.598 110.281 170.598 111.035H174.598ZM173.839 107.652C173.196 106.416 172.039 105.58 170.77 104.995L169.094 108.626C169.958 109.025 170.222 109.365 170.29 109.497L173.839 107.652ZM170.777 104.998C169.769 104.528 168.579 104.172 167.248 103.906L166.463 107.828C167.592 108.054 168.454 108.328 169.086 108.623L170.777 104.998ZM167.248 103.906C165.994 103.655 164.923 103.469 164.044 103.352L163.515 107.316C164.277 107.418 165.256 107.587 166.463 107.828L167.248 103.906ZM165.779 105.334V102.135H161.779V105.334H165.779ZM163.779 104.135H194.008V100.135H163.779V104.135ZM192.008 102.135V105.334H196.008V102.135H192.008Z" fill="white" mask="url(#path-2-outside-1_1_4)"/>
</g>
<defs>
<filter id="filter0_d_1_4" x="0.976562" y="67.2402" width="199.031" height="73.3594" filterUnits="userSpaceOnUse" color-interpolation-filters="sRGB">
<feFlood flood-opacity="0" result="BackgroundImageFix"/>
<feColorMatrix in="SourceAlpha" type="matrix" values="0 0 0 0 0 0 0 0 0 0 0 0 0 0 0 0 0 0 127 0" result="hardAlpha"/>
<feOffset dy="4"/>
<feGaussianBlur stdDeviation="2"/>
<feComposite in2="hardAlpha" operator="out"/>
<feColorMatrix type="matrix" values="0 0 0 0 0 0 0 0 0 0 0 0 0 0 0 0 0 0 0.25 0"/>
<feBlend mode="normal" in2="BackgroundImageFix" result="effect1_dropShadow_1_4"/>
<feBlend mode="normal" in="SourceGraphic" in2="effect1_dropShadow_1_4" result="shape"/>
</filter>
</defs>
</svg>
